<?xml version="1.0" encoding="utf-8"?>
<!-- Generator: Adobe Illustrator 24.2.0, SVG Export Plug-In . SVG Version: 6.00 Build 0)  -->
<svg version="1.1" id="Layer_1" xmlns="http://www.w3.org/2000/svg" xmlns:xlink="http://www.w3.org/1999/xlink" x="0px" y="0px"
	 viewBox="0 0 350 140" style="enable-background:new 0 0 350 140;" xml:space="preserve">
<style type="text/css">
	.st0{fill-rule:evenodd;clip-rule:evenodd;fill:#00B8DE;}
	.st1{fill:#FFFFFF;}
</style>
<g>
	<path id="a_1_" class="st0" d="M0,0h350v140H0V0z"/>
</g>
<g>
	<path d="M137.6,16.6c0,0.1,0,0.3,0.1,0.4c0,0-0.1,0-0.1,0C137.6,16.9,137.6,16.8,137.6,16.6C137.6,16.6,137.6,16.6,137.6,16.6z"/>
	<g>
		<g>
			<path class="st1" d="M228.7,43.8h-1.6c-0.8,0-1.4-0.2-1.8-0.6V31.4l1.7-0.4v-0.9h-8V31l1.7,0.4v12l-1.7,0.4v0.9h12.2l1.1-6.1
				h-0.8L228.7,43.8z"/>
			<path class="st1" d="M211,29.6l-1.2,0.2l-1,0.2l-5.5,13.5l-1.4,0.4v0.9h5.1v-0.9l-2.4-0.5l1.2-3c0.2-0.1,0.6-0.3,0.8-0.3h0.1
				c0.2,0.1,0.5,0.8,2.4,0.8c0.5,0,0.9-0.2,1.2-0.4l1.1,3.2l-1.7,0.3v0.9h8.2v-0.9l-1.3-0.3L211,29.6z M209.1,38.9
				c-0.2,0-0.4-0.1-0.6-0.2c-0.7-0.4-1.4-0.5-1.9-0.4l1.5-4l1.6,4.6H209.1z"/>
			<path class="st1" d="M241.1,30.1h-7.8V31l1.7,0.4v12l-1.7,0.4v0.9h6.8c7.1,0,9.8-4,9.8-7.6C249.9,33.1,246.6,30.1,241.1,30.1z
				 M241.3,43.9c-0.9,0-1.5-0.3-1.9-0.7V30.8c3.3,0.2,5.5,2.8,5.5,7.1C245,41.7,243.1,43.9,241.3,43.9z"/>
			<polygon class="st1" points="160.7,31 162.5,31.4 162.5,36.7 156.8,36.7 156.8,31.4 158.6,31 158.6,30.1 150.6,30.1 150.6,31 
				152.3,31.4 152.3,43.5 150.6,43.9 150.6,44.8 158.6,44.8 158.6,43.9 156.8,43.5 156.8,37.9 162.5,37.9 162.5,43.5 160.7,43.9 
				160.7,44.8 168.7,44.8 168.7,43.9 167,43.5 167,31.4 168.7,31 168.7,30.1 160.7,30.1 			"/>
			<path class="st1" d="M180.5,43.9h-2.1c-0.8,0-1.3-0.2-1.8-0.7v-4.7h2.8c0,0,0.1-2.1,0.9-2.6l-0.2-0.5c0,0-0.9,0.2-1.6,1.1h-1.9
				v-0.8v-4.7h4.4l1.6,3.7h0.8v-4.6h-13.1V31l1.7,0.4v12l-1.7,0.4v0.9h12.7l0.8-5.4h-0.8L180.5,43.9z"/>
			<path class="st1" d="M200,42.8h-0.3l-3.1-5.2v-0.1c2.2-0.8,3.1-2.2,3.1-3.7c0-2-1.9-3.7-7.4-3.7h-6.7V31l1.7,0.4v12l-1.7,0.4v0.9
				h7.8v-0.9l-1.6-0.4v-5h0.4l3.7,6.4h1.4v0h3.5l0.9-2.6l-0.2-0.5L200,42.8z M193.5,37.4h-1.6V31c2,0.2,3.7,1.4,3.7,3.4
				C195.6,35.8,194.7,37,193.5,37.4z"/>
			<path class="st1" d="M258.8,29.6c-3.9,0-7.8,3.1-7.8,7.6c0,4.5,3.9,7.6,7.8,7.6c3.9,0,7.8-3.1,7.8-7.6
				C266.7,32.7,262.8,29.6,258.8,29.6z M258.9,44.1c-2.8,0-3.7-3.4-3.7-6.8c-0.1-3.6,0.6-6.8,3.5-6.9c2.9,0,3.7,3.3,3.8,6.8
				C262.5,41,261.8,44,258.9,44.1z"/>
		</g>
	</g>
	<path class="st1" d="M151.8,49.5h0.9l4.8,8.1l4.8-8.1h0.9l0.9,12.8h-2.6l-0.4-6.4l-3.4,5.8h-0.5l-3.4-5.8l-0.4,6.4h-2.4L151.8,49.5
		z"/>
	<path class="st1" d="M166.5,49.7h8v2.4H169v2.7h4.3v2.3H169V60h5.5v2.3h-8V49.7z"/>
	<path class="st1" d="M176.5,49.7h2.3c4.5,0,7.8,1.8,7.8,6.3c0,4.5-3.2,6.3-7.8,6.3h-2.3V49.7z M180,60c2.6,0,3.9-1.4,3.9-3.9
		c0-2.5-1.4-4-3.9-4h-0.8V60H180z"/>
	<path class="st1" d="M188.2,49.7h2.6v12.6h-2.6V49.7z"/>
	<path class="st1" d="M194.4,62.3h-2.6l5.5-12.7h0.9l5.5,12.7h-2.7l-0.8-1.9h-5L194.4,62.3z M197.6,54.4l-1.6,3.9h3.2L197.6,54.4z"
		/>
	<path class="st1" d="M208.5,56c0-4.2,3-6.5,6.5-6.5c1.3,0,2.5,0.3,3,0.5l-0.7,2.3c-0.5-0.2-1.6-0.4-2.1-0.4c-2.4,0-3.9,1.6-3.9,4.1
		s1.4,4.1,3.7,4.1c0.4,0,0.7-0.1,1-0.1v-3.8h2.5v5.7c-0.8,0.3-2.4,0.6-3.5,0.6C211.4,62.5,208.5,60.2,208.5,56z"/>
	<path class="st1" d="M230.6,62.3h-2.9l-2.4-3.8c-0.4,0.1-0.8,0.1-1.3,0.1h-0.8v3.7h-2.6V49.7h2.6c4.4,0,6.6,1.3,6.6,4.5
		c0,1.7-0.8,2.9-2.1,3.6L230.6,62.3z M224,56.3c2.4,0,3.3-0.7,3.3-2.1c0-1.4-0.9-2.1-3.3-2.1h-0.8v4.3H224z"/>
	<path class="st1" d="M231.4,56c0-4,2.6-6.5,5.9-6.5c3.3,0,5.9,2.6,5.9,6.5c0,4-2.6,6.5-5.9,6.5C234,62.5,231.4,59.9,231.4,56z
		 M240.6,56.1c0-2.5-1.4-4.1-3.3-4.1c-1.9,0-3.3,1.6-3.3,4.1c0,2.5,1.4,4.1,3.3,4.1C239.2,60.2,240.6,58.6,240.6,56.1z"/>
	<path class="st1" d="M244.9,57.2v-7.6h2.6V57c0,2.1,0.8,3.1,2.5,3.1c1.8,0,2.6-1,2.6-3.1v-7.4h2.5v7.6c0,3.4-1.9,5.3-5.1,5.3
		C246.8,62.5,244.9,60.7,244.9,57.2z"/>
	<path class="st1" d="M257.7,49.7h2.7c4.4,0,6.6,1.4,6.6,4.6c0,2.9-2.1,4.5-5.9,4.5h-0.9v3.5h-2.6V49.7z M261.1,56.5
		c2.4,0,3.3-0.8,3.3-2.2c0-1.4-0.9-2.2-3.3-2.2h-0.9v4.4H261.1z"/>
	<path class="st1" d="M110.9,17.2C95.5,17.2,83,29.7,83,45.1C83,60.5,95.5,73,110.9,73c15.4,0,27.9-12.5,27.9-27.9
		C138.8,29.7,126.3,17.2,110.9,17.2z M128.3,32.8l-3.3,0.8v23.1l3.3,0.8v1.7h-15.3v-1.7l3.4-0.8V46h-10.8v10.7l3.3,0.8v1.7H93.5
		v-1.7l3.3-0.8V33.5l-3.3-0.8V31h15.3v1.7l-3.3,0.8v10.1h10.8V33.5l-3.3-0.8V31h15.3V32.8z"/>
</g>
</svg>
